<svg xmlns="http://www.w3.org/2000/svg" width="160" height="160" viewBox="0 0 160 160" fill="none">
  <defs>
    <linearGradient id="bg" x1="22" y1="18" x2="142" y2="146" gradientUnits="userSpaceOnUse">
      <stop stop-color="#FFF1F6"/>
      <stop offset="1" stop-color="#F6F2FF"/>
    </linearGradient>
    <linearGradient id="glass" x1="62" y1="44" x2="104" y2="132" gradientUnits="userSpaceOnUse">
      <stop stop-color="#FFFFFF" stop-opacity="0.92"/>
      <stop offset="1" stop-color="#FFFFFF" stop-opacity="0.65"/>
    </linearGradient>
  </defs>

  <rect x="14" y="14" width="132" height="132" rx="26" fill="url(#bg)"/>

  <!-- dropper cap -->
  <rect x="64" y="24" width="32" height="18" rx="8" fill="#FFFFFF" opacity="0.92"/>
  <rect x="74" y="38" width="12" height="18" rx="6" fill="#222222" opacity="0.12"/>
  <path d="M80 56v14" stroke="#222222" stroke-opacity="0.2" stroke-width="4" stroke-linecap="round"/>

  <!-- bottle -->
  <rect x="58" y="56" width="44" height="76" rx="16" fill="url(#glass)" stroke="#FFFFFF" stroke-opacity="0.8"/>
  <path d="M64 102c10-14 22-14 32 0" stroke="#FF4D8D" stroke-opacity="0.7" stroke-width="6" stroke-linecap="round"/>

  <!-- droplet -->
  <path d="M122 94c0 9-7 16-16 16s-16-7-16-16c0-7 8-16 16-26 8 10 16 19 16 26Z" fill="#FF4D8D" opacity="0.28"/>
  <path d="M114 92c0 5-4 9-9 9s-9-4-9-9c0-4 5-10 9-15 4 5 9 11 9 15Z" fill="#FF4D8D" opacity="0.35"/>
</svg>
